<svg xmlns="http://www.w3.org/2000/svg" version="1.1" xmlns:xlink="http://www.w3.org/1999/xlink" xmlns:svgjs="http://svgjs.dev/svgjs" width="2000" height="626" viewBox="0 0 2000 626"><g transform="matrix(1,0,0,1,-1.2121212121212466,0.7177772081869875)"><svg viewBox="0 0 396 124" data-background-color="#ffffff" preserveAspectRatio="xMidYMid meet" height="626" width="2000" xmlns="http://www.w3.org/2000/svg" xmlns:xlink="http://www.w3.org/1999/xlink"><g id="tight-bounds" transform="matrix(1,0,0,1,0.2400000000000091,-0.14217951088687641)"><svg viewBox="0 0 395.52 124.28435902177372" height="124.28435902177372" width="395.52"><g><svg viewBox="0 0 639.6582854490342 200.99999999999997" height="124.28435902177372" width="395.52"><g><rect width="18.0362064" height="200.99999999999997" x="247.21520000000004" y="0" fill="#35185a" opacity="1" stroke-width="0" stroke="transparent" fill-opacity="1" class="rect-qz-0" data-fill-palette-color="primary" rx="1%" id="qz-0" data-palette-color="#35185a"></rect></g><g transform="matrix(1,0,0,1,312.46660640000005,0.4999999999999858)"><svg viewBox="0 0 327.1916790490342 200" height="200" width="327.1916790490342"><g id="textblocktransform"><svg viewBox="0 0 327.1916790490342 200" height="200" width="327.1916790490342" id="textblock"><g><svg viewBox="0 0 327.1916790490342 200" height="200" width="327.1916790490342"><g transform="matrix(1,0,0,1,0,0)"><svg width="327.1916790490342" viewBox="4.2 -32.67 53.76 32.870000000000005" height="200" data-palette-color="#35185a"><path d="M10.42-9.89L10.42 0.15Q8.74 0 6.13 0L6.13 0 4.2 0 4.2-32.57 5.18-32.52Q6.2-32.47 6.71-32.47L6.71-32.47 7.42-32.47Q9.57-32.47 10.42-32.67L10.42-32.67 10.42-18.87 20.31-32.57Q21.88-32.47 22.95-32.47L22.95-32.47 24.29-32.47Q26.81-32.47 27.88-32.67L27.88-32.67 18.46-20.36 27.73-1.95Q28.32-0.61 28.83 0L28.83 0 27.34 0Q22.19 0 20.92 0.2L20.92 0.2Q20.65-1.44 20.19-2.66L20.19-2.66 13.96-14.53 10.42-9.89ZM39.55-9.89L39.55 0.15Q37.86 0 35.25 0L35.25 0 33.32 0 33.32-32.57 34.3-32.52Q35.32-32.47 35.84-32.47L35.84-32.47 36.55-32.47Q38.69-32.47 39.55-32.67L39.55-32.67 39.55-18.87 49.44-32.57Q51-32.47 52.07-32.47L52.07-32.47 53.42-32.47Q55.93-32.47 57-32.67L57-32.67 47.58-20.36 56.86-1.95Q57.44-0.61 57.96 0L57.96 0 56.47 0Q51.32 0 50.05 0.2L50.05 0.2Q49.78-1.44 49.31-2.66L49.31-2.66 43.09-14.53 39.55-9.89Z" opacity="1" transform="matrix(1,0,0,1,0,0)" fill="#35185a" class="wordmark-text-0" data-fill-palette-color="primary" id="text-0"></path></svg></g></svg></g></svg></g></svg></g><g transform="matrix(1,0,0,1,0,0.4999999999999858)"><svg viewBox="0 0 200.00000000000003 200" height="200" width="200.00000000000003"><g><svg xmlns="http://www.w3.org/2000/svg" xmlns:xlink="http://www.w3.org/1999/xlink" version="1.1" x="0" y="0" viewBox="17.4 18.299999999999997 66.80000000000001 66.8" enable-background="new 0 0 100 100" xml:space="preserve" height="200" width="200.00000000000003" class="icon-icon-0" data-fill-palette-color="accent" id="icon-0"><g fill="#bb84e8" data-fill-palette-color="accent"><path fill="#bb84e8" d="M80.7 54.4h-7.2v-5.4h7.2c1.9 0 3.5-1.6 3.5-3.5 0-1.9-1.6-3.5-3.5-3.5h-7.2v-5.2c0-4.3-3.5-7.8-7.8-7.8h-5.2v-7.2c0-1.9-1.6-3.5-3.5-3.5-1.9 0-3.5 1.6-3.5 3.5V29h-5.4v-7.2c0-1.9-1.6-3.5-3.5-3.5-1.9 0-3.5 1.6-3.5 3.5V29h-5.2c-4.3 0-7.8 3.5-7.8 7.8v5.2h-7.2c-1.9 0-3.5 1.6-3.5 3.5 0 1.9 1.6 3.5 3.5 3.5h7.2v5.4h-7.2c-1.9 0-3.5 1.6-3.5 3.5s1.6 3.5 3.5 3.5h7.2v5.2c0 4.3 3.5 7.8 7.8 7.8h5.2v7.2c0 1.9 1.6 3.5 3.5 3.5 1.9 0 3.5-1.6 3.5-3.5v-7.2h5.4v7.2c0 1.9 1.6 3.5 3.5 3.5 1.9 0 3.5-1.6 3.5-3.5v-7.2h5.2c4.3 0 7.8-3.5 7.8-7.8v-5.2h7.2c1.9 0 3.5-1.6 3.5-3.5S82.6 54.4 80.7 54.4zM66.5 66.6c0 0.4-0.3 0.8-0.8 0.8H35.9c-0.4 0-0.8-0.3-0.8-0.8V36.7c0-0.4 0.3-0.8 0.8-0.8h29.9c0.4 0 0.8 0.3 0.8 0.8V66.6z" data-fill-palette-color="accent"></path><path fill="#bb84e8" d="M57.8 43.6h-14c-0.6 0-1.1 0.5-1.1 1.1v14c0 0.6 0.5 1.1 1.1 1.1h14c0.6 0 1.1-0.5 1.1-1.1v-14C58.9 44 58.4 43.6 57.8 43.6z" data-fill-palette-color="accent"></path></g></svg></g></svg></g></svg></g><defs></defs></svg><rect width="395.52" height="124.28435902177372" fill="none" stroke="none" visibility="hidden"></rect></g></svg></g></svg>